PathFileType	4	(X/Y/Z)	23_coords_data.trc
DataRate	CameraRate	NumFrames	NumMarkers	Units	OrigDataRate	OrigDataStartFrame	OrigNumFrames
30.0	30.0	8	21	m	30.0	11	62
Frame#	Time	THUMB_TIP	THUMB_IP	THUMB_MCP	THUMB_CMC	INDEX_TIP	INDEX_DIP	INDEX_PIP	INDEX_MCP	MIDDLE_TIP	MIDDLE_DIP	MIDDLE_PIP	MIDDLE_MCP	RING_TIP	RING_DIP	RING_PIP	RING_MCP	PINKY_TIP	PINKY_DIP	PINKY_PIP	PINKY_MCP	WRIST
X1	Y1	Z1	X2	Y2	Z2	X3	Y3	Z3	X4	Y4	Z4	X5	Y5	Z5	X6	Y6	Z6	X7	Y7	Z7	X8	Y8	Z8	X9	Y9	Z9	X10	Y10	Z10	X11	Y11	Z11	X12	Y12	Z12	X13	Y13	Z13	X14	Y14	Z14	X15	Y15	Z15	X16	Y16	Z16	X17	Y17	Z17	X18	Y18	Z18	X19	Y19	Z19	X20	Y20	Z20	X21	Y21	Z21
9	0.33333333333333187	0.5145318458656061	-0.005049518659581476	-0.16393770277902853	0.505773879814917	-0.010399295927786878	-0.14337857065153892	0.4907356699601116	-0.01915426267195397	-0.11757115308078292	0.479004191730414	-0.025919779251814323	-0.07506832724586032	0.5079970446099908	-0.017191705132746593	-0.09879098239784634	0.5240245032483383	-0.016442674806836033	-0.10719095401487755	0.5327028946482253	0.0002724314157473984	-0.12384329858488108	0.49670646133425106	0.021358971471636456	-0.11528463565519365	0.5078506675283994	-0.015645202516216927	-0.08745899687342218	0.5249584841588413	-0.01231054598051573	-0.0923786183962717	0.5407787579401289	0.006942387217390267	-0.10749328183156115	0.5045761982377512	0.03067930212202563	-0.09644423378180189	0.5143002149303879	-0.00589572557456941	-0.07739728730390083	0.5312543778074141	-0.002296095992884717	-0.08235702802433487	0.5461574357454009	0.015255241285832777	-0.09184541054327422	0.5127650303257927	0.03341465603543936	-0.07806485357904736	0.5265418822547371	-0.007790386804927829	-0.0695589526329079	0.5426811712644977	-0.004758615316743486	-0.07438924371138878	0.5488621586172708	0.015236429394138717	-0.07606423665306816	0.5174032234058212	0.025231843082458072	-0.06152771191153572	0.46228308100186083	-0.023011742144276925	-0.051989820119430985
10	0.3666666666666651	0.5144181891990794	-0.005158203170654296	-0.16401715180343646	0.505697763826001	-0.010490399968019148	-0.14343750509542075	0.4907118674694959	-0.019211109097224788	-0.11758809228437461	0.4789959454910995	-0.025927991881766532	-0.07507326360243283	0.507979228317032	-0.017173301187803913	-0.09883006331910793	0.5240389787864592	-0.016487775776432567	-0.10717359193535292	0.5327547365984306	0.0002145471613868022	-0.12381924624042173	0.49675626740363305	0.021310212563405928	-0.11529169026715091	0.5078034356775867	-0.01567692709975632	-0.08745856050945111	0.5249256657937854	-0.012360088089901411	-0.09233993478629621	0.5407979860213517	0.006844466697447094	-0.10746157742237672	0.5046202349654547	0.030637719416459874	-0.09645251867120541	0.5143086404576924	-0.005884383448514496	-0.0774088046616217	0.5312769317024528	-0.0023301495412278994	-0.08235294397653581	0.546197627383431	0.015189666697154602	-0.09187181252111332	0.5128192038785594	0.033361823685326586	-0.07807418994594961	0.5265402250961113	-0.007885005555235636	-0.06950972448151471	0.5426716206644947	-0.004847469347690869	-0.07436270818272284	0.5488897090997391	0.01513380245558571	-0.07606452260711283	0.5174462835976132	0.025181985293802	-0.06153082158699996	0.4622830810018609	-0.023011742144276925	-0.051989820119430985
11	0.39999999999999825	0.5143067802890342	-0.005260838475567353	-0.16410530548642666	0.505623012963694	-0.010579530383635682	-0.14350667200198386	0.4906848613766467	-0.019267235837342023	-0.11761853956428114	0.478968936344834	-0.025920605173702427	-0.07509372590069263	0.5079725237979136	-0.01714964043227174	-0.09887073775225563	0.5240559603521979	-0.016537975793244897	-0.10717428729288436	0.5327933471378217	0.00015008556777185156	-0.12382290624970316	0.4967935875707941	0.021250678638784604	-0.11531300747429196	0.5077317983868499	-0.0156423487638907	-0.08748007879320474	0.5248748997613617	-0.012401814036056225	-0.09233940075628899	0.540801977021401	0.006755466970574164	-0.10746343277112336	0.5046431945115093	0.030592016404631606	-0.09648576091047412	0.5142759881391379	-0.005873987279818138	-0.07745456757029057	0.5312669085911397	-0.0023772361284298826	-0.08236184314631179	0.5462183684335322	0.015102201972354456	-0.09190663603364957	0.5128552703823424	0.03330921388841812	-0.0781179000685579	0.5265417421996899	-0.007957668235234916	-0.06951362032445885	0.5426760647836129	-0.004945613559021678	-0.07437275207667693	0.5489205499589358	0.015025831692475955	-0.07609315855818244	0.5174871758645541	0.02512653694099143	-0.06157412975026044	0.46228308100186094	-0.023011742144276925	-0.051989820119430985
12	0.43333333333333146	0.5141686236809406	-0.005356607385553547	-0.16419542660278164	0.5055263474561666	-0.010660545400367982	-0.14357555019215018	0.49062969591867056	-0.01930869411164282	-0.11765028651291076	0.47895557416676315	-0.025905847572784357	-0.07510522278594245	0.5079654080535705	-0.017141047421707856	-0.09890169617620459	0.5240646107386338	-0.016571016113479997	-0.1071776092504757	0.5328134022408579	0.00010838988767725155	-0.12382891237363014	0.4968117293088517	0.0212105971443447	-0.11533111918989669	0.5076807614987638	-0.01564559797091547	-0.08746980879730659	0.5248282968715325	-0.012433326322668803	-0.09233225072472517	0.5407920380729763	0.006684260228728478	-0.10746785118533364	0.5046485169844946	0.0305582555287085	-0.0965213379165788	0.5142655348561577	-0.005893084474864585	-0.07748116821915485	0.5312576383197171	-0.002408705561596669	-0.08239314577126855	0.5462292103607072	0.015047919712997126	-0.09194815721259397	0.5128764784704445	0.03327203225708919	-0.07815693422706693	0.5265418985439956	-0.007973927147123971	-0.06950480391619274	0.5426733913101964	-0.004984305065001693	-0.0743871292781586	0.5489327196041274	0.014979802707192236	-0.07613847994807688	0.5175122499582363	0.02509261434203247	-0.06159995942259422	0.46228308100186083	-0.023011742144276925	-0.051989820119430985
13	0.4666666666666647	0.5140345356221295	-0.005491807841051188	-0.16427249940017286	0.505444371306131	-0.010779156043074778	-0.143626603294295	0.4905997904840778	-0.019392960648360824	-0.11766007117235999	0.4789586892141623	-0.02594161096971015	-0.07509846946151888	0.5079948519979637	-0.017177975189732186	-0.09893289347528644	0.5241115860916981	-0.01665217737650304	-0.1071775534932291	0.5328598598459686	2.4901885039674276e-05	-0.12383145893983716	0.49686906176576057	0.021149257553413014	-0.1153426342187257	0.5076497593290907	-0.015623457518748607	-0.08747830007809876	0.5248163758837099	-0.012469693427928474	-0.09231162689574013	0.5408175466513313	0.006600526254694428	-0.10746744443627276	0.5046906240975522	0.030508726350656823	-0.09654080927421749	0.5142860116658649	-0.005944274720553033	-0.07749329612259626	0.5312838726502349	-0.0024809658914586308	-0.08240025178882626	0.5462668582602147	0.014961772183577082	-0.09196273105190678	0.5129294013324175	0.03321617500077845	-0.07817463555707416	0.5265913286872975	-0.008064415628623367	-0.0694652565433922	0.5427167461250623	-0.005085387581341028	-0.07437405521020846	0.5489707515725217	0.014878915567702156	-0.07614211477828159	0.5175635499674496	0.025032917323485893	-0.06160363526074264	0.46228308100186094	-0.023011742144276925	-0.051989820119430985
14	0.4999999999999978	0.5139121615555532	-0.005593999126838445	-0.16434258574623428	0.5053716010768621	-0.010867211646617192	-0.14367250939342258	0.49056938450289744	-0.01944627557913492	-0.11767031628323998	0.47896724862846685	-0.025950125647656863	-0.07509120899530541	0.5080054606770472	-0.017213856268060157	-0.09893265735716283	0.5241205601501998	-0.016677387676293787	-0.10717982477515842	0.5328956205575928	-1.0081239647186102e-05	-0.12382942068597613	0.4969014719832635	0.021112547486910382	-0.11535051049131562	0.5076192996802824	-0.015620614292421564	-0.08746103157611607	0.5247909353906336	-0.012485895760694588	-0.09228891587028076	0.5408230923051311	0.006548143912957993	-0.10745746320912442	0.50470858600781	0.03048489985939351	-0.09655232356483123	0.5142673725007787	-0.005983850172058047	-0.07747525731118843	0.5312659067397971	-0.002550915182869984	-0.08240118779028838	0.5462825962002041	0.014870661462363821	-0.09194936478089488	0.5129614348593149	0.03317871910443215	-0.07819305472808158	0.5266004113025646	-0.008096601364388945	-0.06945171985883491	0.542723165714138	-0.005126696619718207	-0.07437477338197218	0.5489820015009181	0.014835598944171524	-0.07614839944572582	0.5175807644363206	0.025011375611442177	-0.06161226065198888	0.4622830810018609	-0.023011742144276925	-0.051989820119430985
15	0.533333333333331	0.5137802717007532	-0.005694696065891125	-0.16441850402221336	0.5052944947398705	-0.010946232862690253	-0.14372036520148812	0.4905234961015623	-0.019483370642978226	-0.1176866394261119	0.4789742026290324	-0.02594533561559942	-0.07508679401585261	0.5080374761597497	-0.017251725666686868	-0.0989490098344531	0.524157868932623	-0.01671571955836093	-0.10718585597239516	0.5329498644900583	-5.2081531214165366e-05	-0.12383018878624719	0.4969550165727006	0.02106936116197322	-0.1153512928696383	0.507634706143373	-0.0156498820321489	-0.08741354300035897	0.5247967319093838	-0.012513837356139756	-0.09227462265377517	0.5408476735954709	0.006488063764412799	-0.1074635849222968	0.5047437885114099	0.030444729210961863	-0.09656699905703414	0.5142629160054724	-0.00603981711970869	-0.07747898691925947	0.5312603929663129	-0.002608540890506439	-0.08240971915743767	0.5462992768675166	0.014792377574983417	-0.09196063464044213	0.5129916447706842	0.03313807599793184	-0.07822171810833167	0.5266155640369574	-0.008158662235796088	-0.06946479002574257	0.5427370891184466	-0.005207640119845092	-0.07440320044996618	0.5490056156046745	0.014752140061730534	-0.0761709022898257	0.5176113697453252	0.02496885394488202	-0.061648384073189066	0.46228308100186083	-0.023011742144276925	-0.051989820119430985
16	0.5666666666666642	0.5136093800812306	-0.005848565393259619	-0.16452504713771665	0.5051797624637814	-0.011061125229722468	-0.1437941338251083	0.49046332965937867	-0.01955392945357992	-0.1177150448469877	0.4789633031118314	-0.025957715610916976	-0.07509309143965526	0.5080278845502028	-0.017272100918706457	-0.09898484148035425	0.5241665457631728	-0.016772359178949592	-0.1071881257279298	0.5329789762674106	-0.0001209931982600887	-0.12383393338586934	0.4969910105991901	0.021017286432506888	-0.11536779168409683	0.5076329517849236	-0.01566266374343661	-0.08740754191166367	0.5247971910423033	-0.01255842874710833	-0.09228120745240342	0.5408662111229151	0.006420972225626209	-0.10747918371126974	0.5047775372823604	0.03040207576471554	-0.09658596497310323	0.5142215527458153	-0.0061289372786853535	-0.07747810201773253	0.5312239177894367	-0.002699632498359361	-0.08239332852798364	0.5463061805894804	0.014670086064013765	-0.0919326264525886	0.5130245550109616	0.03309886886215441	-0.07824196549592743	0.5266523705797668	-0.00819924388787574	-0.06943231788115567	0.5427691207094965	-0.0052766952404538214	-0.07440314021345729	0.5490338330323344	0.014682718666361394	-0.0761884119038494	0.5176463940200802	0.024924334520948666	-0.06166872086240216	0.4622830810018609	-0.023011742144276925	-0.051989820119430985
